<svg width="30" height="30" viewBox="0 0 30 30" fill="none" xmlns="http://www.w3.org/2000/svg">
<g clip-path="url(#clip0_1311_608)">
<path d="M18.2952 11.205C17.6596 11.205 17.189 11.3653 16.8205 11.5678C16.7615 11.3578 16.5674 11.2041 16.3386 11.25H13.5411C13.2646 11.2041 13.0405 11.4281 13.1258 11.7188V22.0313C13.0405 22.2938 13.2646 22.5188 13.5411 22.5H16.3386C16.6152 22.5188 16.8393 22.2938 16.8393 22.0172L16.8383 15.7847C16.8374 15.7819 16.8271 15.4838 17.0155 15.2785C17.1665 15.1153 17.4261 15.0319 17.7852 15.0319C18.3833 15.0319 18.6496 15.2766 18.749 15.8241V22.0172C18.6505 22.2938 18.8746 22.5188 19.1511 22.5H22.0996C22.3761 22.5188 22.6002 22.2938 22.5008 22.0172V15.616C22.5993 12.361 20.2808 11.205 18.2952 11.205ZM21.598 21.5625H19.6518V15.8241C19.6518 14.7169 18.9365 14.0306 17.7861 14.0306C17.1355 14.0306 16.6293 14.2219 16.2805 14.5988C15.7958 15.1238 15.8333 15.7894 15.9374 15.9375V21.5625H14.0418V12.2063H15.838V12.5213C15.8373 12.6151 15.863 12.7072 15.9123 12.7871C15.9616 12.867 16.0324 12.9313 16.1166 12.9727C16.2008 13.0141 16.295 13.0309 16.3883 13.0212C16.4817 13.0115 16.5704 12.9757 16.6443 12.9178L16.7755 12.8166C17.1552 12.5175 17.548 12.2072 18.2961 12.2072C19.0705 12.2072 21.599 12.4538 21.599 15.6169V21.5625H21.598ZM10.3124 6.53064C9.26052 6.53064 8.40552 7.38564 8.40552 8.43751C8.40552 9.48939 9.26052 10.3444 10.3124 10.3444C11.3643 10.3444 12.2193 9.48939 12.2193 8.43751C12.2193 7.38564 11.3643 6.53064 10.3124 6.53064ZM10.3124 9.34314C9.81364 9.34314 9.40677 8.93626 9.40677 8.43751C9.40677 7.93876 9.81364 7.53189 10.3124 7.53189C10.8111 7.53189 11.218 7.93876 11.218 8.43751C11.218 8.93626 10.8111 9.34314 10.3124 9.34314ZM11.6511 11.2041H8.86864C8.59208 11.2041 8.36802 11.4281 8.43739 11.7188V22.0313C8.36802 22.2938 8.59208 22.5188 8.86864 22.5H11.6511C11.9277 22.5188 12.1518 22.2938 12.1518 22.0172V11.7047C12.1518 11.5719 12.099 11.4446 12.0051 11.3507C11.9113 11.2568 11.7839 11.2041 11.6511 11.2041ZM11.2499 21.5625H9.36927V12.2063H11.2499V21.5625Z" fill="white"/>
<path d="M14.9999 -0.0318604C6.71052 -0.0318604 -0.0319824 6.71064 -0.0319824 15C-0.0319824 23.2894 6.71052 30.0319 14.9999 30.0319C23.2893 30.0319 30.0318 23.2894 30.0318 15C30.0318 6.71064 23.2893 -0.0318604 14.9999 -0.0318604ZM14.9999 29.0306C7.26364 29.0306 0.969268 22.7363 0.969268 15C0.969268 7.26377 7.26364 0.96939 14.9999 0.96939C22.7361 0.96939 29.0305 7.26377 29.0305 15C29.0305 22.7363 22.7361 29.0306 14.9999 29.0306Z" fill="white"/>
</g>
<defs>
<clipPath id="clip0_1311_608">
<rect width="30" height="30" fill="white"/>
</clipPath>
</defs>
</svg>
