<svg width="116" height="566" viewBox="0 0 116 566" fill="none" xmlns="http://www.w3.org/2000/svg">
<g opacity="0.25" clip-path="url(#clip0_1344_599)">
<path fill-rule="evenodd" clip-rule="evenodd" d="M9.77637 543.161C10.2879 544.752 26.5758 563.492 28.5895 564.986C35.3893 570.032 69.0425 550.162 75.3304 546.313C72.1696 538.829 63.5055 525.289 58.0913 520.006C46.2946 528.966 26.7851 540.707 9.77637 543.161Z" fill="white"/>
<path fill-rule="evenodd" clip-rule="evenodd" d="M7.57512 539.105C9.59346 538.858 12.6267 538.405 14.8644 537.715C11.7361 532.276 7.94797 525.311 5.03263 518.8C3.9601 521.565 3.85514 531.805 7.57512 539.105Z" fill="white"/>
<path fill-rule="evenodd" clip-rule="evenodd" d="M23.0724 471.218C21.4624 471.724 2.49127 487.815 0.979584 489.805C-4.1281 496.522 15.9856 529.767 19.882 535.979C27.4573 532.857 41.1638 524.298 46.5118 518.949C37.4416 507.295 25.5565 488.021 23.0724 471.218Z" fill="white"/>
<path fill-rule="evenodd" clip-rule="evenodd" d="M27.1777 469.043C27.4281 471.038 27.8875 474.034 28.5857 476.245C34.091 473.154 41.1416 469.412 47.7324 466.532C44.9328 465.471 34.5673 465.369 27.1777 469.043Z" fill="white"/>
<path fill-rule="evenodd" clip-rule="evenodd" d="M95.8981 484.353C95.3854 482.763 79.0981 464.023 77.084 462.528C70.2836 457.483 36.6314 477.353 30.3428 481.202C33.5033 488.686 42.1674 502.226 47.5817 507.509C59.3784 498.548 78.8891 486.807 95.8981 484.353Z" fill="white"/>
<path fill-rule="evenodd" clip-rule="evenodd" d="M98.0994 488.409C96.0808 488.657 93.0473 489.11 90.8096 489.8C93.9375 495.239 97.7259 502.205 100.641 508.715C101.714 505.949 101.819 495.71 98.0994 488.409Z" fill="white"/>
<path fill-rule="evenodd" clip-rule="evenodd" d="M82.6018 556.297C84.2107 555.791 103.182 539.7 104.693 537.71C109.801 530.993 89.6885 497.748 85.7912 491.536C78.2153 494.658 64.5091 503.218 59.1611 508.566C68.2316 520.22 80.1173 539.493 82.6018 556.297Z" fill="white"/>
<path fill-rule="evenodd" clip-rule="evenodd" d="M78.4958 558.471C78.2453 556.478 77.7866 553.481 77.0879 551.27C71.5824 554.361 64.5316 558.102 57.9414 560.983C60.741 562.043 71.1059 562.146 78.4958 558.471Z" fill="white"/>
<path d="M97.1046 122.524L97.1046 128.078L96.0879 128.078L96.0879 115.846L97.1046 115.846L97.1046 121.4L111.555 121.4L111.555 122.524L97.1046 122.524Z" fill="white"/>
<path d="M106.053 104.914L106.053 114.81C106.952 114.781 107.751 114.554 108.451 114.127C109.15 113.701 109.691 113.125 110.075 112.397C110.458 111.67 110.649 110.851 110.649 109.939C110.649 109.19 110.513 108.496 110.24 107.857C109.968 107.217 109.566 106.685 109.036 106.259L109.765 105.62C110.369 106.119 110.833 106.748 111.157 107.504C111.481 108.261 111.643 109.079 111.643 109.961C111.643 111.107 111.393 112.129 110.892 113.025C110.391 113.921 109.699 114.623 108.815 115.129C107.931 115.637 106.922 115.89 105.788 115.89C104.669 115.89 103.663 115.651 102.772 115.173C101.881 114.697 101.185 114.039 100.684 113.201C100.183 112.364 99.9326 111.424 99.9326 110.38C99.9326 109.337 100.18 108.4 100.673 107.57C101.166 106.74 101.855 106.085 102.739 105.608C103.622 105.131 104.625 104.892 105.743 104.892L106.053 104.914ZM101.445 112.562C101.807 113.209 102.315 113.726 102.971 114.116C103.626 114.505 104.367 114.729 105.191 114.788L105.191 105.972C104.367 106.016 103.63 106.236 102.982 106.633C102.334 107.03 101.825 107.552 101.456 108.197C101.089 108.844 100.905 109.572 100.905 110.38C100.905 111.188 101.085 111.916 101.445 112.562Z" fill="white"/>
<path d="M110.892 99.9109C110.392 100.793 109.696 101.484 108.804 101.983C107.913 102.483 106.908 102.732 105.788 102.732C104.654 102.732 103.642 102.483 102.75 101.983C101.859 101.484 101.166 100.793 100.673 99.9109C100.18 99.0291 99.9326 98.0302 99.9326 96.914C99.9326 95.9886 100.113 95.1465 100.474 94.3899C100.835 93.6332 101.362 93.0206 102.054 92.5499L102.65 93.3651C102.076 93.7762 101.645 94.2876 101.358 94.8973C101.07 95.507 100.927 96.1792 100.927 96.914C100.927 97.8097 101.129 98.615 101.534 99.327C101.94 100.04 102.511 100.598 103.246 101.002C103.984 101.406 104.83 101.608 105.787 101.608C106.745 101.608 107.592 101.406 108.329 101.002C109.065 100.599 109.636 100.04 110.041 99.327C110.446 98.615 110.648 97.8097 110.648 96.914C110.648 96.1792 110.505 95.507 110.217 94.8973C109.93 94.2876 109.499 93.7762 108.925 93.3651L109.521 92.5499C110.214 93.0206 110.741 93.6332 111.101 94.3899C111.462 95.1465 111.643 95.9886 111.643 96.914C111.644 98.0302 111.393 99.0291 110.892 99.9109Z" fill="white"/>
<path d="M101.192 80.4057C102.031 79.5677 103.24 79.1496 104.815 79.1496L111.555 79.1496L111.555 80.2518L104.904 80.2518C103.608 80.2518 102.622 80.5785 101.944 81.2319C101.266 81.8863 100.927 82.8008 100.927 83.9765C100.927 85.328 101.332 86.3934 102.142 87.1719C102.952 87.9514 104.042 88.3397 105.413 88.3397L111.555 88.3397L111.555 89.4419L95.1602 89.4419L95.1602 88.3397L102.43 88.3397C101.634 87.9435 101.019 87.3556 100.585 86.5761C100.15 85.7976 99.9327 84.8791 99.9327 83.8216C99.9327 82.3818 100.353 81.2428 101.192 80.4057Z" fill="white"/>
<path d="M101.192 65.5727C102.031 64.7356 103.24 64.3155 104.815 64.3155L111.554 64.3155L111.554 65.4177L104.904 65.4177C103.608 65.4177 102.621 65.7454 101.943 66.3988C101.266 67.0532 100.927 67.9677 100.927 69.1424C100.927 70.4949 101.332 71.5593 102.142 72.3388C102.952 73.1183 104.041 73.5066 105.412 73.5066L111.554 73.5066L111.554 74.6088L100.021 74.6088L100.021 73.5513L102.517 73.5513C101.707 73.1541 101.074 72.5632 100.618 71.7768C100.161 70.9903 99.9326 70.0609 99.9326 68.9885C99.9323 67.5487 100.352 66.4097 101.192 65.5727Z" fill="white"/>
<path d="M110.892 58.2006C110.392 59.0744 109.696 59.7616 108.804 60.2611C107.913 60.7605 106.908 61.0098 105.788 61.0098C104.668 61.0098 103.664 60.7605 102.772 60.2611C101.881 59.7616 101.184 59.0744 100.684 58.2006C100.183 57.3268 99.9326 56.3457 99.9326 55.2584C99.9326 54.1711 100.183 53.19 100.684 52.3162C101.184 51.4423 101.88 50.7552 102.772 50.2558C103.664 49.7563 104.668 49.5061 105.788 49.5061C106.908 49.5061 107.913 49.7563 108.804 50.2558C109.695 50.7552 110.392 51.4423 110.892 52.3162C111.393 53.19 111.644 54.1711 111.644 55.2584C111.644 56.3457 111.393 57.3268 110.892 58.2006ZM110.031 52.8891C109.618 52.1911 109.043 51.64 108.307 51.2359C107.57 50.8327 106.731 50.6301 105.788 50.6301C104.846 50.6301 104.006 50.8327 103.269 51.2359C102.533 51.64 101.959 52.1911 101.546 52.8891C101.134 53.5872 100.927 54.3766 100.927 55.2584C100.927 56.1392 101.134 56.9296 101.546 57.6277C101.959 58.3247 102.533 58.8768 103.269 59.281C104.006 59.6841 104.846 59.8867 105.788 59.8867C106.731 59.8867 107.57 59.6851 108.307 59.281C109.043 58.8768 109.618 58.3247 110.031 57.6277C110.443 56.9296 110.649 56.1392 110.649 55.2584C110.649 54.3766 110.443 53.5872 110.031 52.8891Z" fill="white"/>
<path d="M95.1602 46.0905L95.1602 44.9872L111.555 44.9872L111.555 46.0905L95.1602 46.0905Z" fill="white"/>
<path d="M110.892 38.784C110.392 39.6578 109.696 40.3449 108.804 40.8444C107.913 41.3439 106.908 41.5931 105.788 41.5931C104.668 41.5931 103.664 41.3439 102.772 40.8444C101.881 40.3449 101.184 39.6578 100.684 38.784C100.183 37.9091 99.9326 36.9281 99.9326 35.8408C99.9326 34.7534 100.183 33.7734 100.684 32.8985C101.184 32.0247 101.88 31.3376 102.772 30.8382C103.664 30.3387 104.668 30.0894 105.788 30.0894C106.908 30.0894 107.913 30.3387 108.804 30.8382C109.695 31.3376 110.392 32.0247 110.892 32.8985C111.393 33.7734 111.644 34.7544 111.644 35.8408C111.644 36.9281 111.393 37.9091 110.892 38.784ZM110.031 33.4725C109.618 32.7744 109.043 32.2233 108.307 31.8192C107.57 31.4151 106.731 31.2135 105.788 31.2135C104.846 31.2135 104.006 31.4151 103.269 31.8192C102.533 32.2233 101.959 32.7744 101.546 33.4725C101.134 34.1696 100.927 34.96 100.927 35.8408C100.927 36.7225 101.134 37.5129 101.546 38.21C101.959 38.9081 102.533 39.4592 103.269 39.8634C104.006 40.2675 104.846 40.4691 105.788 40.4691C106.731 40.4691 107.57 40.2675 108.307 39.8634C109.043 39.4592 109.618 38.9081 110.031 38.21C110.443 37.5129 110.649 36.7225 110.649 35.8408C110.649 34.96 110.443 34.1696 110.031 33.4725Z" fill="white"/>
<path d="M100.022 16.3137L110.318 16.3137C112.233 16.3137 113.647 16.7764 114.56 17.7029C115.474 18.6273 115.93 20.0245 115.93 21.8903C115.93 22.9478 115.768 23.9477 115.444 24.8871C115.12 25.8274 114.671 26.5851 114.096 27.1571L113.257 26.5623C113.787 25.9893 114.199 25.2992 114.494 24.4909C114.788 23.6826 114.935 22.8237 114.935 21.9121C114.935 20.3839 114.571 19.2529 113.842 18.5171C113.113 17.7833 111.982 17.4149 110.451 17.4149L108.506 17.4149C109.345 17.8856 109.995 18.5389 110.451 19.377C110.908 20.2141 111.135 21.1555 111.135 22.1981C111.135 23.2705 110.896 24.2447 110.417 25.1185C109.938 25.9933 109.272 26.6804 108.417 27.1789C107.564 27.6793 106.598 27.9286 105.523 27.9286C104.448 27.9286 103.483 27.6793 102.628 27.1789C101.774 26.6794 101.111 25.9933 100.64 25.1185C100.169 24.2447 99.9326 23.2705 99.9326 22.1981C99.9326 21.1396 100.169 20.1853 100.64 19.3324C101.111 18.4814 101.774 17.827 102.628 17.3722L100.021 17.3722L100.021 16.3137L100.022 16.3137ZM109.556 19.6859C109.166 18.966 108.621 18.4039 107.921 17.9998C107.222 17.5966 106.422 17.3931 105.523 17.3931C104.624 17.3931 103.83 17.5966 103.137 17.9998C102.445 18.4039 101.903 18.966 101.513 19.6859C101.123 20.4068 100.927 21.2141 100.927 22.1097C100.927 23.0074 101.123 23.8117 101.513 24.5237C101.903 25.2367 102.445 25.7947 103.137 26.1988C103.83 26.603 104.625 26.8046 105.523 26.8046C106.422 26.8046 107.221 26.6039 107.921 26.1988C108.621 25.7947 109.166 25.2367 109.556 24.5237C109.946 23.8117 110.141 23.0074 110.141 22.1097C110.141 21.2141 109.946 20.4058 109.556 19.6859Z" fill="white"/>
<path d="M100.021 2.40599L113.124 8.31327C114.14 8.75416 114.862 9.26452 115.289 9.84542C115.717 10.4253 115.93 11.1125 115.93 11.9059C115.93 12.4341 115.842 12.9306 115.664 13.3933C115.489 13.8561 115.231 14.2493 114.892 14.572L114.052 14.0209C114.656 13.4341 114.957 12.7211 114.957 11.884C114.957 11.325 114.803 10.8474 114.493 10.4512C114.185 10.054 113.654 9.68753 112.903 9.34892L111.511 8.73134L100.021 13.9107L100.021 12.743L110.34 8.13648L100.021 3.53006L100.021 2.40599Z" fill="white"/>
<path d="M91.2827 412.255C91.2827 417.085 90.6345 421.771 89.3384 426.311C87.9832 430.793 86.245 434.402 84.1238 437.138L73.3414 432.336C75.2857 429.716 76.8472 426.602 78.0255 422.994C79.204 419.384 79.7932 415.776 79.7932 412.167C79.7932 408.151 79.204 405.182 78.0255 403.261C76.7883 401.341 75.1679 400.379 73.1646 400.379C71.6916 400.379 70.4837 400.962 69.541 402.126C68.5394 403.232 67.7439 404.687 67.1547 406.491C66.5655 408.238 65.9174 410.624 65.2104 413.651C64.0908 418.308 62.9714 422.12 61.8518 425.089C60.7324 428.057 58.9353 430.619 56.4606 432.772C53.9859 434.868 50.6864 435.915 46.5619 435.915C42.9678 435.915 39.7272 434.955 36.84 433.034C33.894 431.113 31.5666 428.232 29.8579 424.39C28.1493 420.49 27.2949 415.747 27.2949 410.158C27.2949 406.259 27.7663 402.446 28.709 398.721C29.6517 394.996 31.0069 391.737 32.7746 388.942L43.6454 393.307C40.4047 398.954 38.7845 404.6 38.7845 410.246C38.7845 414.204 39.4326 417.144 40.7288 419.064C42.0251 420.927 43.7337 421.859 45.8549 421.859C47.976 421.859 49.5669 420.781 50.6275 418.628C51.6291 416.416 52.6307 413.069 53.6325 408.587C54.7519 403.93 55.8714 400.118 56.9909 397.149C58.1104 394.181 59.878 391.649 62.2937 389.554C64.7095 387.4 67.9796 386.323 72.104 386.323C75.6393 386.323 78.8799 387.313 81.8259 389.292C84.7131 391.212 87.011 394.123 88.7196 398.022C90.4284 401.923 91.2827 406.666 91.2827 412.255Z" fill="white"/>
<path d="M42.6728 379.365L42.6728 365.744L90.2217 365.744L90.2217 379.365L42.6728 379.365ZM36.0443 372.555C36.0443 375.057 35.3077 377.095 33.8347 378.666C32.3617 380.238 30.5352 381.023 28.3551 381.023C26.175 381.023 24.3485 380.238 22.8755 378.666C21.4025 377.095 20.666 375.057 20.666 372.555C20.666 370.052 21.373 368.014 22.7871 366.443C24.2012 364.871 25.9688 364.086 28.09 364.086C30.3878 364.086 32.3028 364.871 33.8347 366.443C35.3077 368.014 36.0443 370.052 36.0443 372.555Z" fill="white"/>
<path d="M87.9247 324.553C88.9263 325.892 89.6922 327.551 90.2225 329.53C90.6939 331.451 90.9296 333.488 90.9296 335.642C90.9296 341.229 89.4861 345.566 86.599 348.651C83.7118 351.678 79.4695 353.191 73.8721 353.191L54.3399 353.191L54.3399 360.438L43.7342 360.438L43.7342 353.191L32.1563 353.191L32.1563 339.57L43.7342 339.57L43.7342 327.871L54.3399 327.871L54.3399 339.57L73.6953 339.57C75.6986 339.57 77.2601 339.076 78.3795 338.087C79.4401 337.038 79.9703 335.583 79.9703 333.721C79.9703 331.567 79.3812 329.734 78.2028 328.22L87.9247 324.553Z" fill="white"/>
<path d="M66.6242 274.091C66.8009 274.091 68.0383 274.178 70.3362 274.352L70.3362 309.888C73.2822 309.248 75.6095 307.734 77.3183 305.348C79.0269 302.961 79.8813 299.993 79.8813 296.442C79.8813 293.997 79.5277 291.844 78.8207 289.981C78.0547 288.06 76.8764 286.285 75.2855 284.655L83.2397 277.409C88.3658 281.832 90.9289 288.293 90.9289 296.792C90.9289 302.088 89.8978 306.774 87.8355 310.848C85.7145 314.923 82.7978 318.066 79.0858 320.278C75.3738 322.49 71.161 323.595 66.4474 323.595C61.7926 323.595 57.6093 322.519 53.8973 320.365C50.1264 318.154 47.2098 315.156 45.1475 311.373C43.0265 307.531 41.9658 303.252 41.9658 298.537C41.9658 293.939 42.9676 289.777 44.9708 286.053C46.9741 282.327 49.8612 279.416 53.6322 277.321C57.3442 275.167 61.6748 274.091 66.6242 274.091ZM52.3948 298.45C52.3948 301.535 53.2786 304.126 55.0463 306.221C56.8138 308.316 59.2296 309.597 62.2935 310.063L62.2935 286.925C59.2886 287.391 56.9023 288.672 55.1346 290.767C53.3081 292.862 52.3948 295.423 52.3948 298.45Z" fill="white"/>
<path d="M91.2827 243.697C91.2827 248.529 90.6345 253.213 89.3383 257.754C87.9832 262.236 86.245 265.844 84.1238 268.581L73.3414 263.779C75.2857 261.159 76.8472 258.045 78.0255 254.436C79.204 250.827 79.7932 247.219 79.7932 243.609C79.7932 239.594 79.204 236.625 78.0255 234.704C76.7882 232.783 75.1679 231.823 73.1646 231.823C71.6915 231.823 70.4837 232.404 69.541 233.569C68.5394 234.674 67.7439 236.13 67.1547 237.934C66.5655 239.681 65.9174 242.067 65.2103 245.094C64.0908 249.751 62.9714 253.563 61.8518 256.532C60.7324 259.5 58.9353 262.061 56.4606 264.215C53.9859 266.31 50.6864 267.358 46.5619 267.358C42.9677 267.358 39.7271 266.397 36.84 264.477C33.894 262.556 31.5666 259.675 29.8579 255.833C28.1492 251.933 27.2949 247.189 27.2949 241.601C27.2949 237.702 27.7663 233.889 28.709 230.164C29.6517 226.439 31.0069 223.179 32.7745 220.385L43.6454 224.751C40.4047 230.397 38.7844 236.043 38.7844 241.689C38.7844 245.647 39.4326 248.586 40.7288 250.508C42.025 252.369 43.7337 253.301 45.8549 253.301C47.976 253.301 49.5669 252.224 50.6275 250.071C51.6291 247.858 52.6307 244.512 53.6324 240.03C54.7519 235.373 55.8714 231.56 56.9909 228.592C58.1104 225.623 59.878 223.091 62.2937 220.996C64.7095 218.842 67.9795 217.766 72.104 217.766C75.6393 217.766 78.8799 218.755 81.8259 220.734C84.713 222.655 87.0109 225.566 88.7196 229.465C90.4284 233.366 91.2827 238.109 91.2827 243.697Z" fill="white"/>
<path d="M41.9658 150.651C41.9658 144.772 43.7335 140.116 47.2687 136.681C50.745 133.189 55.9889 131.443 63.0006 131.443L90.2218 131.443L90.2218 145.063L65.1216 145.063C61.3507 145.063 58.552 145.849 56.7255 147.42C54.84 148.934 53.8973 151.117 53.8973 153.969C53.8973 157.17 54.9578 159.702 57.079 161.565C59.1412 163.427 62.2345 164.358 66.359 164.358L90.2218 164.358L90.2218 177.979L65.1216 177.979C57.6387 177.979 53.8973 180.947 53.8973 186.885C53.8973 190.028 54.9578 192.53 57.079 194.393C59.1412 196.256 62.2345 197.187 66.359 197.187L90.2218 197.187L90.2218 210.808L42.6729 210.808L42.6729 197.798L48.1526 197.798C46.1492 196.053 44.6173 193.928 43.5567 191.425C42.4961 188.864 41.9658 186.07 41.9658 183.043C41.9658 179.725 42.6435 176.728 43.9986 174.05C45.2948 171.373 47.2098 169.219 49.7434 167.59C47.2687 165.668 45.3538 163.253 43.9986 160.343C42.6435 157.374 41.9658 154.144 41.9658 150.651Z" fill="white"/>
<path d="M41.9658 102.034C41.9658 94.7583 43.7335 89.1708 47.2687 85.2703C50.745 81.3709 56.0185 79.4207 63.0889 79.4207L90.2218 79.4207L90.2218 92.1686L84.3004 92.1686C88.7194 94.7295 90.9289 99.5028 90.9289 106.487C90.9289 110.096 90.3103 113.239 89.0729 115.917C87.8355 118.536 86.1269 120.544 83.9468 121.941C81.7667 123.338 79.2921 124.036 76.5228 124.036C72.1037 124.036 68.6275 122.407 66.0938 119.147C63.5603 115.829 62.2935 110.736 62.2935 103.868L62.2935 93.0414C59.2886 93.0414 56.9906 93.944 55.3997 95.7483C53.75 97.5525 52.9251 100.259 52.9251 103.868C52.9251 106.37 53.3376 108.845 54.1625 111.289C54.9284 113.676 55.989 115.713 57.3441 117.401L47.7106 122.291C45.8841 119.729 44.47 116.673 43.4683 113.123C42.4666 109.514 41.9658 105.818 41.9658 102.034ZM81.6489 103.082C81.6489 100.754 81.1186 98.6875 80.058 96.8833C78.9386 95.079 77.3183 93.7981 75.1971 93.0414L70.3361 93.0414L70.3361 102.383C70.3361 107.971 72.1921 110.765 75.9041 110.765C77.6717 110.765 79.0858 110.096 80.1465 108.757C81.1481 107.36 81.6489 105.469 81.6489 103.082Z" fill="white"/>
<path d="M48.9479 55.8305C46.65 54.201 44.9119 52.0184 43.7335 49.2828C42.5551 46.4885 41.9658 43.2871 41.9658 39.6787L54.6927 39.6787C54.5748 41.192 54.5159 42.2108 54.5159 42.7341C54.5159 46.6345 55.6355 49.6899 57.8745 51.9023C60.0545 54.1136 63.354 55.2198 67.7731 55.2198L90.2218 55.2198L90.2218 68.8406L42.6729 68.8406L42.6729 55.8305L48.9479 55.8305Z" fill="white"/>
<path d="M87.9246 1.40918C88.9263 2.74871 89.6922 4.40702 90.2225 6.38603C90.6939 8.30745 90.9296 10.344 90.9296 12.4978C90.9296 18.0853 89.4861 22.4217 86.599 25.5069C83.7118 28.5335 79.4695 30.0468 73.8721 30.0468L54.3399 30.0468L54.3399 37.2936L43.7342 37.2936L43.7342 30.0468L32.1563 30.0468L32.1563 16.4271L43.7342 16.4271L43.7342 4.72771L54.3399 4.72771L54.3399 16.4271L73.6953 16.4271C75.6986 16.4271 77.26 15.9325 78.3795 14.9425C79.4401 13.8949 79.9703 12.4392 79.9703 10.5774C79.9703 8.42358 79.3812 6.58956 78.2027 5.07626L87.9246 1.40918Z" fill="white"/>
</g>
<defs>
<clipPath id="clip0_1344_599">
<rect width="566" height="116" fill="white" transform="translate(0 566) rotate(-90)"/>
</clipPath>
</defs>
</svg>
